<svg xmlns="http://www.w3.org/2000/svg" version="1.1" xmlns:xlink="http://www.w3.org/1999/xlink" xmlns:svgjs="http://svgjs.dev/svgjs" width="100%" height="100%" viewBox="0 0 1000 600"><rect width="1000" height="600" x="0" y="0" fill="#cc313d"/><g><rect width="333.3333333333333" height="333.3333333333333" rx="13.333333333333334" ry="13.333333333333334" y="181.23834548432376" fill="#f7c5cc" transform="matrix(0.7860839597546507,0,0,0.7860839597546507,-1.1592983685824363,26.51747740803917)" x="165.9103088378906"/><path d="M205.87878947516066 419.7498523939224L160.49090808088658 419.7498523939224L160.49090808088658 415.7842020425094Q169.26165301868318 415.1763286309789 174.52988925194714 409.1554872215345L174.52988925194714 409.1554872215345Q176.78770478048884 406.60820816369255 179.16130572075062 402.15046981246917Q181.5638530139424 397.6637851083158 184.31375654229447 391.26664111078094L184.31375654229447 391.26664111078094L234.79619605225238 272.9050039799222L238.64606099194523 272.9050039799222L288.4048416786526 392.27976346333173Q291.473155089235 399.60319075462724 294.2809513234471 404.2924999292908Q297.0598012047292 408.9528627510243 299.40445579206084 411.21067827956597L299.40445579206084 411.21067827956597Q304.0937649667244 415.1763286309789 312.95134896331103 415.7842020425094L312.95134896331103 415.7842020425094L312.95134896331103 419.7498523939224L256.56385345562876 419.7498523939224L256.56385345562876 415.7842020425094Q270.9212445089195 415.5815775719992 270.9212445089195 406.60820816369255L270.9212445089195 406.60820816369255Q270.9212445089195 402.15046981246917 266.7529696869964 392.27976346333173L266.7529696869964 392.27976346333173L258.0980101609199 371.6120674712962L202.52101253527815 371.6120674712962L192.65030618614074 394.6244180506635Q189.08990477574807 402.9609676945098 189.08990477574807 406.31874463439226L189.08990477574807 406.31874463439226Q189.08990477574807 414.25004533721824 205.87878947516066 415.7842020425094L205.87878947516066 415.7842020425094L205.87878947516066 419.7498523939224ZM230.91738475962947 305.6722754967068L205.87878947516066 363.8833912389804L255.2323212208477 363.8833912389804L230.91738475962947 305.6722754967068ZM366.8784044719415 419.7498523939224L316.7143748442139 419.7498523939224L316.7143748442139 415.7842020425094Q326.3824567228411 415.7842020425094 329.2191993099832 412.7158886319271L329.2191993099832 412.7158886319271Q332.0848882500554 409.5607361625547 332.0848882500554 397.7795705200358L332.0848882500554 397.7795705200358L332.0848882500554 360.2072044168676Q332.0848882500554 339.04742042502176 328.929735780683 335.19755548532885L328.929735780683 335.19755548532885Q323.6325531944891 332.44765195697687 316.7143748442139 335.48701901462914L316.7143748442139 335.48701901462914L315.7012524916631 331.72399313372625L345.6028350683756 320.0296665499975L349.88689530201873 320.0296665499975L349.88689530201873 341.79732395337385Q361.78384635625764 320.0296665499975 374.9254905864875 320.0296665499975L374.9254905864875 320.0296665499975Q380.91738564300204 320.0296665499975 384.5935724651148 323.38744348988007L384.5935724651148 323.38744348988007Q388.55922281652784 326.7452204297625 388.55922281652784 331.72399313372625L388.55922281652784 331.72399313372625Q388.55922281652784 335.48701901462914 385.80931928817574 338.5553324252114L385.80931928817574 338.5553324252114Q382.8567912893135 341.47891407114366 379.0937654084107 341.47891407114366L379.0937654084107 341.47891407114366Q375.2149541157878 341.47891407114366 370.6414303528444 337.8316736019609L370.6414303528444 337.8316736019609Q366.27053106041103 334.068647721058 363.92587647307937 334.068647721058L363.92587647307937 334.068647721058Q358.62869388688534 334.068647721058 349.88689530201873 350.45228347945033L349.88689530201873 350.45228347945033L349.88689530201873 397.17169710850544Q349.88689530201873 407.0424034576429 353.2446722419013 411.0080538090558L353.2446722419013 411.0080538090558Q357.0076981228041 415.7842020425094 366.8784044719415 415.7842020425094L366.8784044719415 415.7842020425094L366.8784044719415 419.7498523939224ZM425.17635927300523 422.9050048632947L425.17635927300523 422.9050048632947Q406.158605397981 422.9050048632947 406.158605397981 397.17169710850544L406.158605397981 397.17169710850544L406.158605397981 330.1029973696451L390.5854675216293 330.1029973696451L390.5854675216293 326.7452204297625Q399.03780257719563 323.4742825486701 408.5900990441029 312.3878293764718L408.5900990441029 312.3878293764718Q414.08990610080696 305.6722754967068 420.71862092178196 290.8227964436056L420.71862092178196 290.8227964436056L423.75798797943423 290.8227964436056L423.75798797943423 322.66378466662945L446.5677140882914 322.66378466662945L446.5677140882914 330.1029973696451L423.75798797943423 330.1029973696451L423.75798797943423 394.7112571094535Q423.75798797943423 410.6028048680355 433.3392307992714 410.6896439268256L433.3392307992714 410.6896439268256Q441.27053150209736 411.09489286784583 445.2361818535104 402.03468440074903L445.2361818535104 402.03468440074903L449.5202420871535 402.03468440074903Q446.0466797355509 412.22380063211676 438.81009150304556 417.81044674761097L438.81009150304556 417.81044674761097Q432.2971620937907 422.9050048632947 425.17635927300523 422.9050048632947ZM504.66304441884495 419.7498523939224L457.3357573782595 419.7498523939224L457.3357573782595 415.7842020425094Q466.5117512570763 415.7842020425094 469.2616547854284 412.7158886319271L469.2616547854284 412.7158886319271Q472.21418278429064 409.5607361625547 472.21418278429064 400.00843969564755L472.21418278429064 400.00843969564755L472.21418278429064 347.99184348039853Q472.21418278429064 333.75023783882784 464.86180914006513 333.75023783882784L464.86180914006513 333.75023783882784Q462.3434764351532 333.75023783882784 457.3357573782595 335.48701901462914L457.3357573782595 335.48701901462914L455.91738608468836 331.72399313372625L485.3268806615905 320.0296665499975L489.9004044245338 320.0296665499975L489.9004044245338 400.00843969564755Q489.9004044245338 409.76336063306485 492.76609336460604 412.7158886319271L492.76609336460604 412.7158886319271Q495.5159968929581 415.7842020425094 504.66304441884495 415.7842020425094L504.66304441884495 415.7842020425094L504.66304441884495 419.7498523939224ZM481.04282042794716 300.5777173810229L481.04282042794716 300.5777173810229Q476.6719211355139 300.5777173810229 473.31414419563134 297.53835032337065L473.31414419563134 297.53835032337065Q470.2747771379792 294.4700369127883 470.2747771379792 289.80967409105483L470.2747771379792 289.80967409105483Q470.2747771379792 284.9177404458811 473.5167686661416 282.25467597631916L473.5167686661416 282.25467597631916Q476.78770654723405 279.2153089186669 481.04282042794716 279.2153089186669L481.04282042794716 279.2153089186669Q485.6452905438207 279.2153089186669 488.68465760147296 282.25467597631916L488.68465760147296 282.25467597631916Q491.75297101205524 285.4098284456916 491.75297101205524 289.80967409105483L491.75297101205524 289.80967409105483Q491.75297101205524 294.5858223245084 488.8004430131931 297.53835032337065L488.8004430131931 297.53835032337065Q485.7321296026107 300.5777173810229 481.04282042794716 300.5777173810229Z " fill="#cc313d" transform="matrix(0.7860839597546507,0,0,0.7860839597546507,-1.1592983685824363,26.51747740803917)"/><path d="M634.4303276029947 419.6112938719243L584.3900368990832 419.6112938719243L584.3900368990832 415.47148721344854Q593.9387880237425 415.47148721344854 596.7188041739598 412.177772426778L596.7188041739598 412.177772426778Q599.5894730247277 408.88405764010747 599.5894730247277 396.67616063263154L599.5894730247277 396.67616063263154L599.5894730247277 357.87680479699Q599.5894730247277 341.10605519513547 599.0455568214244 337.1777715046111L599.0455568214244 337.1777715046111Q597.6555487463157 329.8349027600153 592.0350813121808 329.8349027600153L592.0350813121808 329.8349027600153Q589.2852827288135 329.8349027600153 584.3900368990832 331.64795677102666L584.3900368990832 331.64795677102666L582.5769828880717 327.71967308050216L613.2780308078629 315.5117760730261L618.1732766375934 315.5117760730261L618.1732766375934 336.84537826925896Q629.7466047412155 323.88204209052833 637.9355653576164 319.53071246410116L637.9355653576164 319.53071246410116Q644.7345178989088 315.5117760730261 653.2256541838117 315.5117760730261L653.2256541838117 315.5117760730261Q674.166428010992 315.5117760730261 678.9408035733218 336.84537826925896L678.9408035733218 336.84537826925896Q689.6680398051385 324.4259582938316 698.0685233894909 319.651582731502L698.0685233894909 319.651582731502Q705.3811745672364 315.5117760730261 714.3255743548921 315.5117760730261L714.3255743548921 315.5117760730261Q741.1889912847093 315.5117760730261 741.1889912847093 352.89090626670895L741.1889912847093 352.89090626670895L741.1889912847093 396.67616063263154Q741.1889912847093 408.3401414368042 744.2711831034285 411.845379191426L744.2711831034285 411.845379191426Q747.1418519541965 415.47148721344854 756.388427410354 415.47148721344854L756.388427410354 415.47148721344854L756.388427410354 419.6112938719243L706.2272664390416 419.6112938719243L706.2272664390416 415.47148721344854Q717.6192891415626 415.47148721344854 720.3690877249297 411.4223332555233L720.3690877249297 411.4223332555233Q722.6958403723942 408.03796576830223 722.6958403723942 396.67616063263154L722.6958403723942 396.67616063263154L722.6958403723942 352.89090626670895Q722.6958403723942 328.5657649523074 705.804220503139 328.5657649523074L705.804220503139 328.5657649523074Q693.596323495663 328.5657649523074 679.6962427445765 342.28454030229284L679.6962427445765 342.28454030229284L679.6962427445765 396.67616063263154Q679.6962427445765 408.03796576830223 682.1136480925915 411.54320352292405L682.1136480925915 411.54320352292405Q685.1051872107602 415.47148721344854 696.1345991110788 415.47148721344854L696.1345991110788 415.47148721344854L696.1345991110788 419.6112938719243L644.7345178989088 419.6112938719243L644.7345178989088 415.47148721344854Q656.5193689704821 415.47148721344854 659.5109080886508 410.9086346190701L659.5109080886508 410.9086346190701Q661.293744532812 407.9170955009015 661.293744532812 396.67616063263154L661.293744532812 396.67616063263154L661.293744532812 352.89090626670895Q661.293744532812 328.3542419843561 643.9790787276542 328.3542419843561L643.9790787276542 328.3542419843561Q631.1366128163241 328.3542419843561 618.1732766375934 342.28454030229284L618.1732766375934 342.28454030229284L618.1732766375934 396.67616063263154Q618.1732766375934 409.30710357601015 621.2554684563125 412.26842512732856L621.2554684563125 412.26842512732856Q624.1261373070805 415.47148721344854 634.4303276029947 415.47148721344854L634.4303276029947 415.47148721344854L634.4303276029947 419.6112938719243ZM800.6873804127298 422.90500865859485L800.6873804127298 422.90500865859485Q774.549185087317 422.90500865859485 774.549185087317 383.5013014859495L774.549185087317 383.5013014859495L774.549185087317 338.2353863443676Q774.549185087317 328.5657649523074 771.0439473326952 325.604443400989L771.0439473326952 325.604443400989Q767.5387095780734 322.52225158226986 757.3251719827098 322.52225158226986L757.3251719827098 322.52225158226986L757.3251719827098 318.26157465639324L793.0423359996322 318.26157465639324L793.0423359996322 386.03957710136524Q793.0423359996322 409.09558060805887 809.722432900936 409.09558060805887L809.722432900936 409.09558060805887Q820.8727150686555 409.09558060805887 835.1051890550941 394.8631066216202L835.1051890550941 394.8631066216202L835.1051890550941 337.26842420516164Q835.1051890550941 328.5657649523074 831.1769053645696 325.272050165637L831.1769053645696 325.272050165637Q828.0947135458504 322.8244272507717 818.7272678222921 322.52225158226986L818.7272678222921 322.52225158226986L818.7272678222921 318.26157465639324L853.6889926679597 318.26157465639324L853.6889926679597 392.8385296426576Q853.6889926679597 408.03796576830223 860.3972925087016 408.03796576830223L860.3972925087016 408.03796576830223Q865.1716680710313 408.03796576830223 869.311474729507 406.4364347252423L869.311474729507 406.4364347252423L870.7921355051662 410.1531954478154L840.0910875853751 422.90500865859485L835.1051890550941 422.90500865859485L835.1051890550941 401.32966592756054Q828.9408054176556 407.7055725329502 824.1059947216256 412.0569021593773Q819.2711840255954 416.4384493526545 815.5544233030223 418.5536790321677L815.5544233030223 418.5536790321677Q808.1209018578761 422.90500865859485 800.6873804127298 422.90500865859485ZM916.7832722511527 422.90500865859485L916.7832722511527 422.90500865859485Q910.5282359131636 422.90500865859485 901.6140536923581 419.73216413932505L901.6140536923581 419.73216413932505Q891.7329093323466 416.4384493526545 889.5874620859834 416.1060561173025L889.5874620859834 416.1060561173025Q887.8952783423728 416.1060561173025 885.6591783954589 421.0919546475835L885.6591783954589 421.0919546475835L882.0632879402864 421.0919546475835L882.0632879402864 384.9819622616087L885.6591783954589 384.9819622616087Q888.741370214178 399.8490051519012 897.564899734433 408.2494887362536L897.564899734433 408.2494887362536Q905.5423373828826 416.1060561173025 916.7832722511527 416.1060561173025L916.7832722511527 416.1060561173025Q924.7607098996023 416.1060561173025 929.4444327613814 411.75472649087544L929.4444327613814 411.75472649087544Q934.0072853557599 407.191873896497 934.3094610242617 401.11814295960914L934.3094610242617 401.11814295960914Q934.4303312916625 393.47309854651155 929.535085461932 387.85263111237657L929.535085461932 387.85263111237657Q924.6700571990517 382.5343393467434 908.7151819021524 374.13385576239114L908.7151819021524 374.13385576239114Q892.7905241721032 366.065765413391 887.1700567379683 358.9646372035967L887.1700567379683 358.9646372035967Q881.5193717369831 352.0448143949036 881.5193717369831 342.5867159707948L881.5193717369831 342.5867159707948Q881.5193717369831 330.68099463182057 890.2220309898372 323.1568204861237L890.2220309898372 323.1568204861237Q898.9549078095416 315.5117760730261 914.5773898710888 315.5117760730261L914.5773898710888 315.5117760730261Q919.8654640698718 315.5117760730261 927.6313787503702 317.50613548513854L927.6313787503702 317.50613548513854Q931.4690097403441 318.3824449237941 933.7353272541081 318.95657869394756Q936.0318623347224 319.53071246410116 936.4549082706251 319.53071246410116L936.4549082706251 319.53071246410116Q939.5371000893442 319.53071246410116 941.4408068009061 315.5117760730261L941.4408068009061 315.5117760730261L945.27843779088 315.5117760730261L945.27843779088 349.92958471539043L941.4408068009061 349.92958471539043Q934.7627245270146 321.76681241101505 914.0334736677855 321.76681241101505L914.0334736677855 321.76681241101505Q895.0266241190171 321.76681241101505 894.4827079157137 335.1531945256485L894.4827079157137 335.1531945256485Q894.0596619798112 348.3280536723305 911.0721521164671 356.3054913207801L911.0721521164671 356.3054913207801L927.2989855150181 363.82966546647697Q950.6873822570637 374.88929493364583 950.6873822570637 394.1076674503655L950.6873822570637 394.1076674503655Q950.6873822570637 405.59034285343705 940.4738446617001 414.29300210629117L940.4738446617001 414.29300210629117Q930.2905246331867 422.90500865859485 916.7832722511527 422.90500865859485ZM1016.6523306910244 419.6112938719243L967.2466088909669 419.6112938719243L967.2466088909669 415.47148721344854Q976.8255775824764 415.47148721344854 979.6962464332443 412.26842512732856L979.6962464332443 412.26842512732856Q982.7784382519635 408.974710340658 982.7784382519635 399.002913280096L982.7784382519635 399.002913280096L982.7784382519635 344.70194565030795Q982.7784382519635 329.8349027600153 975.1031762720156 329.8349027600153L975.1031762720156 329.8349027600153Q972.4742479560493 329.8349027600153 967.2466088909669 331.64795677102666L967.2466088909669 331.64795677102666L965.7659481153075 327.71967308050216L996.4669960350986 315.5117760730261L1001.2413715974285 315.5117760730261L1001.2413715974285 399.002913280096Q1001.2413715974285 409.1862333086094 1004.2329107155971 412.26842512732856L1004.2329107155971 412.26842512732856Q1007.1035795663649 415.47148721344854 1016.6523306910244 415.47148721344854L1016.6523306910244 415.47148721344854L1016.6523306910244 419.6112938719243ZM991.9947961412709 295.2055711496997L991.9947961412709 295.2055711496997Q987.4319435468924 295.2055711496997 983.9267057922707 292.03272663043L983.9267057922707 292.03272663043Q980.7538612730009 288.82966454431005 980.7538612730009 283.96463628142976L980.7538612730009 283.96463628142976Q980.7538612730009 278.85786748374795 984.138228760222 276.07785133353065L984.138228760222 276.07785133353065Q987.5528138142931 272.9050068142609 991.9947961412709 272.9050068142609L991.9947961412709 272.9050068142609Q996.7993892704508 272.9050068142609 999.9722337897206 276.07785133353065L999.9722337897206 276.07785133353065Q1003.1752958758404 279.3715661202011 1003.1752958758404 283.96463628142976L1003.1752958758404 283.96463628142976Q1003.1752958758404 288.9505348117108 1000.0931040571213 292.03272663043L1000.0931040571213 292.03272663043Q996.8900419710013 295.2055711496997 991.9947961412709 295.2055711496997ZM1072.4339590964719 422.90500865859485L1072.4339590964719 422.90500865859485Q1054.0616784515573 422.90500865859485 1041.7329111766808 408.03796576830223L1041.7329111766808 408.03796576830223Q1029.1926209338526 393.26157557856027 1029.1926209338526 369.05730453155957L1029.1926209338526 369.05730453155957Q1029.1926209338526 345.6689077895139 1043.6366178882427 330.257948695918L1043.6366178882427 330.257948695918Q1057.566916206179 315.5117760730261 1077.5407278941534 315.5117760730261L1077.5407278941534 315.5117760730261Q1089.2047086983262 315.5117760730261 1099.8412922295925 321.6761597104645L1099.8412922295925 321.6761597104645Q1112.0491892370683 328.7772879202588 1112.0491892370683 339.7160471200268L1112.0491892370683 339.7160471200268Q1112.0491892370683 349.0834928435852 1101.5334759732027 349.0834928435852L1101.5334759732027 349.0834928435852Q1090.473846506034 349.0834928435852 1089.4162316662773 335.90863369690317L1089.4162316662773 335.90863369690317Q1088.358616826521 322.73377455022114 1073.914619872131 322.73377455022114L1073.914619872131 322.73377455022114Q1061.9182458326063 322.73377455022114 1054.4847243874601 333.0379648461353L1054.4847243874601 333.0379648461353Q1047.3533786108155 343.6443308105513 1047.3533786108155 359.4783358400499L1047.3533786108155 359.4783358400499Q1047.3533786108155 378.39453268826765 1055.8445148957185 391.3578688669984L1055.8445148957185 391.3578688669984Q1064.8795673839245 405.1672969175344 1080.2905264775209 405.1672969175344L1080.2905264775209 405.1672969175344Q1100.778036801948 405.1672969175344 1111.626143301166 379.4521475280243L1111.626143301166 379.4521475280243L1114.5874648524841 381.0536785710842Q1111.9585365365178 399.3353065154481 1099.6297692616408 411.1201575870215L1099.6297692616408 411.1201575870215Q1087.512524954716 422.90500865859485 1072.4339590964719 422.90500865859485Z " fill="#f7c5cc" transform="matrix(0.7860839597546507,0,0,0.7860839597546507,-1.1592983685824363,26.51747740803917)"/></g></svg>